<svg width="24" height="24" viewBox="0 0 24 24" fill="none" xmlns="http://www.w3.org/2000/svg">
<path fill-rule="evenodd" clip-rule="evenodd" d="M21.1 17.032C20.9963 17.1127 20.8777 17.1722 20.751 17.207C20.6242 17.2418 20.4919 17.2513 20.3615 17.235C20.2311 17.2187 20.1052 17.1768 19.991 17.1117C19.8768 17.0467 19.7766 16.9598 19.696 16.856L17.202 13.65C16.8761 13.2304 16.4264 12.924 15.9167 12.7743C15.4069 12.6247 14.863 12.6392 14.362 12.816L14.869 13.455L19.071 17.657C19.2532 17.8456 19.3539 18.0982 19.3517 18.3604C19.3494 18.6226 19.2442 18.8734 19.0588 19.0588C18.8734 19.2442 18.6226 19.3494 18.3604 19.3517C18.0982 19.354 17.8456 19.2532 17.657 19.071L13.455 14.869L12.815 14.362C12.6383 14.8631 12.6239 15.4071 12.7738 15.9169C12.9237 16.4266 13.2302 16.8763 13.65 17.202L16.857 19.696C17.0597 19.861 17.1898 20.0989 17.2193 20.3586C17.2488 20.6184 17.1754 20.8793 17.0148 21.0857C16.8543 21.292 16.6194 21.4272 16.3603 21.4624C16.1013 21.4976 15.8388 21.43 15.629 21.274L12.422 18.78C11.5805 18.1253 10.9966 17.1951 10.773 16.1526C10.5493 15.1102 10.7001 14.0223 11.199 13.08L4.422 7.705C4.16361 7.50033 3.95144 7.24332 3.79943 6.95084C3.64741 6.65836 3.55899 6.33703 3.53997 6.00795C3.52094 5.67887 3.57175 5.3495 3.68905 5.04145C3.80635 4.7334 3.98748 4.45365 4.22056 4.22057C4.45364 3.98748 4.73339 3.80635 5.04144 3.68905C5.34949 3.57175 5.67887 3.52095 6.00795 3.53997C6.33703 3.55899 6.65835 3.64742 6.95083 3.79943C7.24332 3.95145 7.50033 4.16361 7.705 4.422L13.08 11.199C14.0223 10.7001 15.1102 10.5493 16.1526 10.773C17.1951 10.9966 18.1253 11.5805 18.78 12.422L21.275 15.629C21.4377 15.8384 21.5105 16.1038 21.4775 16.3669C21.4445 16.63 21.3094 16.8693 21.1 17.032ZM7.951 7.952L6.138 5.665C6.10863 5.62736 6.0716 5.59639 6.02936 5.57414C5.98712 5.55189 5.94064 5.53887 5.89299 5.53594C5.84534 5.53301 5.79761 5.54024 5.75296 5.55715C5.70831 5.57405 5.66777 5.60025 5.63401 5.63401C5.60025 5.66777 5.57405 5.70831 5.55715 5.75296C5.54024 5.79761 5.53301 5.84534 5.53594 5.89299C5.53887 5.94064 5.55189 5.98712 5.57414 6.02936C5.59639 6.0716 5.62736 6.10863 5.665 6.138L7.951 7.952Z" fill="#FF9222"/>
</svg>
